<svg xmlns="http://www.w3.org/2000/svg" width="128" height="128" viewBox="0 0 128 128">
  <defs>
    <linearGradient id="bgGrad" x1="0%" y1="0%" x2="100%" y2="100%">
      <stop offset="0%" style="stop-color:#3b82f6"/>
      <stop offset="100%" style="stop-color:#1d4ed8"/>
    </linearGradient>
  </defs>
  <circle cx="64" cy="64" r="60" fill="url(#bgGrad)"/>
  <circle cx="64" cy="64" r="52" fill="none" stroke="rgba(255,255,255,0.2)" stroke-width="2"/>
  <rect x="54" y="28" width="20" height="72" rx="4" fill="white"/>
  <rect x="28" y="54" width="72" height="20" rx="4" fill="white"/>
  <circle cx="34" cy="34" r="4" fill="#60a5fa"/>
  <circle cx="94" cy="34" r="4" fill="#60a5fa"/>
  <circle cx="34" cy="94" r="4" fill="#60a5fa"/>
  <circle cx="94" cy="94" r="4" fill="#60a5fa"/>
  <path d="M38 34 L50 34 M34 38 L34 50" stroke="#60a5fa" stroke-width="2" fill="none"/>
  <path d="M90 34 L78 34 M94 38 L94 50" stroke="#60a5fa" stroke-width="2" fill="none"/>
  <path d="M38 94 L50 94 M34 90 L34 78" stroke="#60a5fa" stroke-width="2" fill="none"/>
  <path d="M90 94 L78 94 M94 90 L94 78" stroke="#60a5fa" stroke-width="2" fill="none"/>
  <path d="M20 64 L40 64 L45 50 L50 78 L55 58 L60 70 L65 64 L108 64" stroke="#22c55e" stroke-width="3" fill="none" stroke-linecap="round"/>
</svg>
